<svg width="720" height="720" viewBox="0 0 720 720" fill="none" xmlns="http://www.w3.org/2000/svg">
<rect width="720" height="720" fill="#54C3E4"/>
<path d="M277.742 331.387V391H263.946V366.559H236.864V391H223.068V331.387H236.864V354.892H263.946V331.387H277.742ZM337.918 345.183V383.336C337.918 391.738 335.789 397.983 331.531 402.071C327.273 406.159 321.084 408.203 312.966 408.203C308.651 408.203 304.563 407.663 300.703 406.584C296.899 405.506 293.691 403.944 291.079 401.901L296.359 392.363C298.29 393.952 300.646 395.201 303.428 396.11C306.21 397.018 309.02 397.472 311.859 397.472C316.287 397.472 319.523 396.45 321.567 394.406C323.611 392.363 324.633 389.24 324.633 385.039V383.506C322.93 385.209 320.914 386.515 318.586 387.423C316.259 388.332 313.761 388.786 311.092 388.786C305.074 388.786 300.305 387.083 296.785 383.676C293.265 380.213 291.505 375.047 291.505 368.177V345.183H304.79V366.218C304.79 373.656 307.885 377.374 314.073 377.374C317.252 377.374 319.807 376.352 321.737 374.308C323.668 372.208 324.633 369.114 324.633 365.026V345.183H337.918ZM364.022 346.205H375.774V356.425H364.362V391H351.077V344.161C351.077 338.938 352.61 334.794 355.676 331.728C358.799 328.662 363.17 327.129 368.791 327.129C370.778 327.129 372.651 327.356 374.411 327.811C376.228 328.208 377.733 328.804 378.925 329.599L375.433 339.222C373.901 338.143 372.112 337.604 370.068 337.604C366.037 337.604 364.022 339.818 364.022 344.247V346.205ZM480.333 391.681C475.45 391.681 471.05 390.688 467.133 388.701C463.272 386.657 460.235 383.846 458.02 380.27C455.863 376.693 454.784 372.634 454.784 368.092C454.784 363.55 455.863 359.49 458.02 355.914C460.235 352.337 463.272 349.555 467.133 347.568C471.05 345.524 475.45 344.502 480.333 344.502C485.158 344.502 489.36 345.524 492.936 347.568C496.57 349.555 499.21 352.422 500.856 356.169L490.552 361.705C488.167 357.503 484.733 355.403 480.247 355.403C476.784 355.403 473.917 356.538 471.646 358.809C469.375 361.08 468.24 364.174 468.24 368.092C468.24 372.009 469.375 375.103 471.646 377.374C473.917 379.645 476.784 380.781 480.247 380.781C484.789 380.781 488.224 378.68 490.552 374.479L500.856 380.099C499.21 383.733 496.57 386.572 492.936 388.615C489.36 390.659 485.158 391.681 480.333 391.681Z" fill="#13181F"/>
<g clip-path="url(#clip0_107_11)">
<path d="M444.686 355.736C444.544 355.378 444.288 355.069 443.954 354.852C443.62 354.634 443.222 354.517 442.815 354.517H418.732L432.624 329.163C432.781 328.877 432.857 328.559 432.845 328.237C432.833 327.916 432.733 327.603 432.555 327.329C432.376 327.055 432.125 326.828 431.827 326.671C431.528 326.514 431.191 326.432 430.848 326.433C430.37 326.433 429.908 326.595 429.546 326.888L414.892 338.767L385.667 362.461C385.359 362.71 385.14 363.042 385.039 363.412C384.937 363.782 384.959 364.172 385.101 364.53C385.243 364.888 385.498 365.197 385.832 365.415C386.166 365.633 386.563 365.75 386.97 365.75H411.053L397.161 391.104C397.004 391.39 396.928 391.709 396.94 392.03C396.952 392.351 397.052 392.664 397.23 392.938C397.409 393.213 397.66 393.439 397.958 393.596C398.257 393.753 398.594 393.835 398.936 393.834C399.415 393.834 399.877 393.673 400.239 393.379L414.892 381.5L444.118 357.806C444.426 357.557 444.646 357.225 444.748 356.855C444.85 356.485 444.828 356.094 444.686 355.736V355.736Z" fill="#13181F"/>
</g>
<defs>
<clipPath id="clip0_107_11">
<rect width="71.8019" height="67.4012" fill="white" transform="translate(378.992 326.433)"/>
</clipPath>
</defs>
</svg>
