<svg width="1015" height="337" viewBox="0 0 1015 337" fill="none" xmlns="http://www.w3.org/2000/svg">
<path d="M12.5 103C12.5 65.7208 42.7208 35.5 80 35.5H245C282.279 35.5 312.5 65.7208 312.5 103V301.5H80C42.7208 301.5 12.5 271.279 12.5 234V103Z" fill="#54C3E4" stroke="#54C3E4" stroke-width="25"/>
<path d="M115.5 195C134.554 195 150 179.554 150 160.5C150 141.446 134.554 126 115.5 126C96.4462 126 81 141.446 81 160.5C81 179.554 96.4462 195 115.5 195Z" fill="#0E0F14"/>
<path d="M209.553 195C228.607 195 244.053 179.554 244.053 160.5C244.053 141.446 228.607 126 209.553 126C190.499 126 175.053 141.446 175.053 160.5C175.053 179.554 190.499 195 209.553 195Z" fill="#0E0F14"/>
<path d="M436.22 246V104.32H471.64V160.42H527.08V104.32H562.5V246H527.08V189.9H471.64V246H436.22ZM619.178 284.72C613.898 284.72 609.351 284.427 605.538 283.84C601.871 283.4 598.204 282.447 594.538 280.98V256.34C597.031 257.22 599.304 257.807 601.358 258.1C603.558 258.393 605.758 258.54 607.958 258.54C613.971 258.54 618.444 257.44 621.378 255.24C624.458 253.187 627.538 249.447 630.618 244.02L583.758 141.72H620.938L648.438 207.94L675.498 141.72H712.458L672.638 237.42C668.678 246.953 664.278 255.24 659.438 262.28C654.598 269.467 648.951 274.967 642.498 278.78C636.044 282.74 628.271 284.72 619.178 284.72ZM738.705 246V168.56H724.845V141.72H738.705V133.14C738.705 121.847 741.931 112.533 748.385 105.2C754.838 97.8669 764.445 94.2002 777.205 94.2002C782.485 94.2002 787.178 94.6402 791.285 95.5202C795.391 96.2535 799.278 97.3535 802.945 98.8202V122.58C800.745 121.847 798.618 121.26 796.565 120.82C794.511 120.38 792.238 120.16 789.745 120.16C784.025 120.16 779.991 121.26 777.645 123.46C775.298 125.513 774.125 128.96 774.125 133.8V141.72H799.865L798.325 168.56H774.125V246H738.705ZM846.285 246V136.88L822.965 140.62V110.92L881.705 102.12V246H846.285ZM970.064 248.2C951.437 248.2 936.844 243.653 926.284 234.56C915.87 225.467 910.664 211.9 910.664 193.86C910.664 175.527 916.09 161.887 926.944 152.94C937.944 143.993 952.537 139.52 970.724 139.52C978.35 139.52 984.95 140.107 990.524 141.28C996.244 142.307 1001.74 144.067 1007.02 146.56V171.64C998.81 167.68 989.204 165.7 978.204 165.7C967.937 165.7 960.09 167.753 954.664 171.86C949.384 175.967 946.744 183.3 946.744 193.86C946.744 203.687 949.237 210.873 954.224 215.42C959.21 219.82 967.13 222.02 977.984 222.02C988.69 222.02 998.444 219.82 1007.24 215.42V241.6C1001.96 243.947 996.244 245.633 990.084 246.66C984.07 247.687 977.397 248.2 970.064 248.2Z" fill="#54C3E4"/>
</svg>
