<svg width="720" height="720" viewBox="0 0 720 720" fill="none" xmlns="http://www.w3.org/2000/svg">
<circle cx="360" cy="360" r="360" fill="#0E0F14"/>
<path d="M210 294.5C210 257.221 240.221 227 277.5 227H442.5C479.779 227 510 257.221 510 294.5V493H277.5C240.221 493 210 462.779 210 425.5V294.5Z" fill="#54C3E4" stroke="#54C3E4" stroke-width="25"/>
<path d="M317 388.5C332.74 388.5 345.5 375.74 345.5 360C345.5 344.26 332.74 331.5 317 331.5C301.26 331.5 288.5 344.26 288.5 360C288.5 375.74 301.26 388.5 317 388.5Z" fill="#171C26" stroke="#171C26" stroke-width="8"/>
<path d="M403 388.5C418.74 388.5 431.5 375.74 431.5 360C431.5 344.26 418.74 331.5 403 331.5C387.26 331.5 374.5 344.26 374.5 360C374.5 375.74 387.26 388.5 403 388.5Z" fill="#171C26" stroke="#171C26" stroke-width="8"/>
</svg>
